<?xml version="1.0" encoding="UTF-8" standalone="no"?>
<svg
   width="286.95651"
   height="286.95651"
   fill="#ffffff"
   fill-rule="evenodd"
   viewBox="0 0 286.95651 286.95651"
   focusable="false"
   class="chakra-icon custom-euf446"
   version="1.1"
   id="svg2"
   sodipodi:docname="dexscreener.svg"
   inkscape:version="1.3 (0e150ed6c4, 2023-07-21)"
   xmlns:inkscape="http://www.inkscape.org/namespaces/inkscape"
   xmlns:sodipodi="http://sodipodi.sourceforge.net/DTD/sodipodi-0.dtd"
   xmlns="http://www.w3.org/2000/svg"
   xmlns:svg="http://www.w3.org/2000/svg">
  <defs
     id="defs2" />
  <sodipodi:namedview
     id="namedview2"
     pagecolor="#505050"
     bordercolor="#eeeeee"
     borderopacity="1"
     inkscape:showpageshadow="0"
     inkscape:pageopacity="0"
     inkscape:pagecheckerboard="0"
     inkscape:deskcolor="#505050"
     inkscape:zoom="2.0058262"
     inkscape:cx="129.6224"
     inkscape:cy="134.85715"
     inkscape:window-width="1920"
     inkscape:window-height="1009"
     inkscape:window-x="-8"
     inkscape:window-y="-8"
     inkscape:window-maximized="1"
     inkscape:current-layer="svg2" />
  <path
     id="path1"
     d="m 143.47825,17.68828 c -11.97727,0.321587 -23.98522,2.647144 -34.40742,7.170713 -7.21657,3.136557 -13.950294,7.279519 -20.047688,12.233865 -2.752698,2.236621 -5.020421,4.397597 -7.518919,6.884152 -6.736306,0.232876 -16.580975,-7.250679 -21.150608,-14.253127 7.865707,25.786823 43.758055,56.239602 68.608265,67.891873 0.0103,-0.0038 0.0174,-0.01073 0.025,-0.01499 4.45958,-3.405263 9.47475,-5.108138 14.49137,-5.108138 5.01662,0 10.03178,1.702875 14.49137,5.108138 0.007,0.0049 0.0148,0.01073 0.0249,0.01499 24.84934,-11.652271 60.74257,-42.10505 68.60827,-67.891873 -4.57049,7.002448 -14.41431,14.486003 -21.15062,14.253127 -2.49764,-2.487408 -4.76536,-4.647531 -7.51892,-6.884152 C 191.8359,32.138512 185.10217,27.99555 177.88561,24.858993 167.46424,20.335424 155.4563,18.009867 143.47818,17.68828 Z M 68.555619,64.534502 66.579673,68.253144 C 60.217844,80.976803 56.91487,93.650294 56.91487,107.91366 l 0.01334,22.63174 -0.119957,11.73239 c -0.461482,28.80311 -6.693235,57.94524 -20.81073,84.61409 l 29.539206,-23.81798 20.899034,33.91595 21.955297,-20.67078 35.08719,56.93755 35.0872,-56.93755 21.9553,20.66912 20.90069,-33.91594 29.53755,23.81796 C 236.8415,200.22136 230.6089,171.0809 230.14826,142.27779 l -0.1183,-11.73239 0.0132,-22.6334 c 0,-14.262517 -3.30468,-26.936009 -9.6648,-39.660523 l -1.97596,-3.716975 c -3.88977,5.472129 -8.72642,11.603368 -14.21646,17.143739 v 0.0017 l 1.71437,3.560365 c 3.33018,6.918 4.43341,14.65137 1.83766,22.006974 -1.67193,4.73768 -4.72519,8.80074 -8.66017,11.90232 -3.82069,3.01202 -8.34343,5.04317 -13.07856,6.10944 -3.08453,0.69437 -6.22786,0.98025 -9.34992,0.88302 0.7285,4.12945 1.04747,8.41126 1.06794,12.77533 l 27.86317,16.09412 -21.50049,12.05225 a 35.711756,35.711756 0 0 0 -4.89154,3.30047 c -17.72749,15.91566 -28.38374,63.00029 -35.70863,85.99859 -7.32404,-22.99828 -17.98201,-70.08291 -35.70863,-85.99856 a 35.763791,35.763791 0 0 0 -4.89154,-3.30048 L 81.377602,155.01147 109.24076,138.91735 c 0.0205,-4.36407 0.33946,-8.64588 1.06794,-12.77534 -3.12205,0.0972 -6.2654,-0.18865 -9.34992,-0.88301 -4.735116,-1.06627 -9.25702,-3.09742 -13.078552,-6.10944 -3.93584,-3.10158 -6.989063,-7.16464 -8.661837,-11.90233 -2.594889,-7.355594 -1.491719,-15.089812 1.839328,-22.006958 l 1.714373,-3.560367 C 77.281196,76.138682 72.445394,70.006631 68.555619,64.534502 Z M 93.69477,91.324717 c -2.102698,4.366614 -2.333694,8.177372 -1.25121,11.254223 0.768573,2.16839 2.215447,4.05419 4.116829,5.55465 2.060896,1.62158 4.633291,2.80235 7.477271,3.4404 5.39621,1.21556 11.69576,0.50562 17.41696,-2.72733 -7.82731,-3.90343 -17.78803,-9.649417 -27.75985,-17.521943 z m 99.56862,0 c -9.97266,7.872526 -19.93334,13.618513 -27.76152,17.521943 5.72122,3.23295 12.02076,3.94289 17.41697,2.72733 2.84396,-0.63805 5.41723,-1.81882 7.47726,-3.4404 1.90224,-1.50046 3.34913,-3.38626 4.11685,-5.55465 1.08332,-3.076851 0.85314,-6.887609 -1.24956,-11.254223 z m -49.78514,14.984523 c -2.82606,2e-5 -5.68975,1.00281 -8.31362,3.00058 -7.31552,5.57706 -12.74011,14.45962 -11.7907,34.54572 a 5.0754794,5.0754794 0 0 1 -3.27549,4.98651 l -10.36287,5.98614 c 21.15747,11.8587 26.91083,33.87896 33.74268,55.32647 6.8327,-21.44751 12.58435,-43.46777 33.74268,-55.32647 l -10.36289,-5.98614 a 5.0754794,5.0754794 0 0 1 -3.27547,-4.98651 c 0.94942,-20.0861 -4.47352,-28.96866 -11.78903,-34.54572 -2.62474,-1.99777 -5.48923,-3.00058 -8.31529,-3.00058 z"
     style="stroke-width:0.853022" />
</svg>
