<?xml version="1.0" encoding="UTF-8" standalone="no"?>
<svg
   fill="#000000"
   viewBox="0 0 24 24"
   width="24px"
   height="24px"
   version="1.1"
   id="svg1"
   sodipodi:docname="instagram.svg"
   inkscape:version="1.3 (0e150ed6c4, 2023-07-21)"
   xmlns:inkscape="http://www.inkscape.org/namespaces/inkscape"
   xmlns:sodipodi="http://sodipodi.sourceforge.net/DTD/sodipodi-0.dtd"
   xmlns="http://www.w3.org/2000/svg"
   xmlns:svg="http://www.w3.org/2000/svg">
  <defs
     id="defs1" />
  <sodipodi:namedview
     id="namedview1"
     pagecolor="#505050"
     bordercolor="#eeeeee"
     borderopacity="1"
     inkscape:showpageshadow="0"
     inkscape:pageopacity="0"
     inkscape:pagecheckerboard="0"
     inkscape:deskcolor="#505050"
     inkscape:zoom="17.729167"
     inkscape:cx="5.5840188"
     inkscape:cy="10.970623"
     inkscape:window-width="1920"
     inkscape:window-height="1009"
     inkscape:window-x="-8"
     inkscape:window-y="-8"
     inkscape:window-maximized="1"
     inkscape:current-layer="svg1" />
  <path
     d="m 7.2980807,1.4206816 c -3.2407979,0 -5.8773991,2.6366012 -5.8773991,5.8773991 v 9.4038383 c 0,3.240798 2.6366012,5.877399 5.8773991,5.877399 h 9.4038383 c 3.240798,0 5.877399,-2.636601 5.877399,-5.877399 V 7.2980807 c 0,-3.2407979 -2.636601,-5.8773991 -5.877399,-5.8773991 z m 0,2.3509596 h 9.4038383 c 1.944244,0 3.52644,1.5821959 3.52644,3.5264395 v 9.4038383 c 0,1.944244 -1.582196,3.52644 -3.52644,3.52644 H 7.2980807 c -1.9442436,0 -3.5264395,-1.582196 -3.5264395,-3.52644 V 7.2980807 c 0,-1.9442436 1.5821959,-3.5264395 3.5264395,-3.5264395 z M 17.877399,4.947121 a 1.1754798,1.1754798 0 0 0 -1.17548,1.1754799 1.1754798,1.1754798 0 0 0 1.17548,1.1754798 1.1754798,1.1754798 0 0 0 1.17548,-1.1754798 1.1754798,1.1754798 0 0 0 -1.17548,-1.1754799 z M 12,6.1226009 c -3.2407979,0 -5.8773991,2.6366012 -5.8773991,5.8773991 0,3.240798 2.6366012,5.877399 5.8773991,5.877399 3.240798,0 5.877399,-2.636601 5.877399,-5.877399 0,-3.2407979 -2.636601,-5.8773991 -5.877399,-5.8773991 z m 0,2.3509596 c 1.944244,0 3.526439,1.5821955 3.526439,3.5264395 0,1.944244 -1.582195,3.526439 -3.526439,3.526439 -1.944244,0 -3.5264395,-1.582195 -3.5264395,-3.526439 0,-1.944244 1.5821955,-3.5264395 3.5264395,-3.5264395 z"
     id="path1"
     style="stroke-width:1.17548;fill:#ffffff;fill-opacity:1" />
</svg>
